<?xml version="1.0" encoding="UTF-8" standalone="no"?>
<!-- Created with Inkscape (http://www.inkscape.org/) -->

<svg
   xmlns:dc="http://purl.org/dc/elements/1.1/"
   xmlns:cc="http://creativecommons.org/ns#"
   xmlns:rdf="http://www.w3.org/1999/02/22-rdf-syntax-ns#"
   xmlns:svg="http://www.w3.org/2000/svg"
   xmlns="http://www.w3.org/2000/svg"
   xmlns:sodipodi="http://sodipodi.sourceforge.net/DTD/sodipodi-0.dtd"
   xmlns:inkscape="http://www.inkscape.org/namespaces/inkscape"
   width="81.25"
   height="45.753292"
   id="svg2"
   version="1.1"
   inkscape:version="0.48.3.1 r9886"
   sodipodi:docname="proprietary.svg">
  <title
     id="title3931">OpenRubyRMK proprietary copyright logo</title>
  <defs
     id="defs4" />
  <sodipodi:namedview
     id="base"
     pagecolor="#ffffff"
     bordercolor="#666666"
     borderopacity="1.0"
     inkscape:pageopacity="0.0"
     inkscape:pageshadow="2"
     inkscape:zoom="5.6"
     inkscape:cx="63.148242"
     inkscape:cy="6.4299059"
     inkscape:document-units="px"
     inkscape:current-layer="layer1"
     showgrid="false"
     inkscape:snap-bbox="true"
     inkscape:bbox-paths="true"
     inkscape:bbox-nodes="true"
     inkscape:window-width="1276"
     inkscape:window-height="748"
     inkscape:window-x="0"
     inkscape:window-y="18"
     inkscape:window-maximized="0"
     fit-margin-top="0"
     fit-margin-left="0"
     fit-margin-right="0"
     fit-margin-bottom="0" />
  <metadata
     id="metadata7">
    <rdf:RDF>
      <cc:Work
         rdf:about="">
        <dc:format>image/svg+xml</dc:format>
        <dc:type
           rdf:resource="http://purl.org/dc/dcmitype/StillImage" />
        <dc:title>OpenRubyRMK proprietary copyright logo</dc:title>
        <dc:date>2012-11-21</dc:date>
        <dc:creator>
          <cc:Agent>
            <dc:title>Marvin Gülker</dc:title>
          </cc:Agent>
        </dc:creator>
        <dc:rights>
          <cc:Agent>
            <dc:title>The OpenRubyRMK Team</dc:title>
          </cc:Agent>
        </dc:rights>
        <dc:description>Coypright logo for proprietary licenses.</dc:description>
        <cc:license
           rdf:resource="http://creativecommons.org/licenses/by/3.0/" />
      </cc:Work>
      <cc:License
         rdf:about="http://creativecommons.org/licenses/by/3.0/">
        <cc:permits
           rdf:resource="http://creativecommons.org/ns#Reproduction" />
        <cc:permits
           rdf:resource="http://creativecommons.org/ns#Distribution" />
        <cc:requires
           rdf:resource="http://creativecommons.org/ns#Notice" />
        <cc:requires
           rdf:resource="http://creativecommons.org/ns#Attribution" />
        <cc:permits
           rdf:resource="http://creativecommons.org/ns#DerivativeWorks" />
      </cc:License>
    </rdf:RDF>
  </metadata>
  <g
     inkscape:label="Ebene 1"
     inkscape:groupmode="layer"
     id="layer1"
     transform="translate(-325.17856,-435.89594)">
    <g
       id="g3026"
       transform="translate(-1.8750207,-2.301939)">
      <path
         transform="translate(41.107698,-2.6262691)"
         d="m 340.71427,463.79074 c 0,7.88978 -6.39593,14.28572 -14.28571,14.28572 -7.88978,0 -14.28572,-6.39594 -14.28572,-14.28572 0,-7.88978 6.39594,-14.28571 14.28572,-14.28571 7.88978,0 14.28571,6.39593 14.28571,14.28571 z"
         sodipodi:ry="14.285714"
         sodipodi:rx="14.285714"
         sodipodi:cy="463.79074"
         sodipodi:cx="326.42856"
         id="path3017"
         style="fill:#c8b7b7;fill-opacity:1;stroke:none"
         sodipodi:type="arc" />
      <g
         transform="translate(1.9642857,-2.5)"
         id="text2985"
         style="font-size:40px;font-style:normal;font-weight:normal;line-height:125%;letter-spacing:0px;word-spacing:0px;fill:#ff0000;fill-opacity:1;stroke:none;font-family:Sans">
        <path
           style="fill:#ff0000"
           id="path3011"
           d="m 365.71429,449.07257 c 1.97915,3e-5 3.8216,0.3581 5.52735,1.07422 1.71872,0.71617 3.28773,1.78388 4.70703,3.20312 1.41924,1.4193 2.48044,2.9818 3.18359,4.6875 0.70309,1.70575 1.05466,3.56122 1.05469,5.56641 -3e-5,1.97918 -0.3516,3.82163 -1.05469,5.52734 -0.70315,1.69272 -1.76435,3.24871 -3.18359,4.66797 -1.4193,1.41928 -2.98831,2.48698 -4.70703,3.20313 -1.70575,0.71614 -3.5482,1.07422 -5.52735,1.07422 -1.97918,0 -3.82814,-0.35808 -5.54687,-1.07422 -1.70574,-0.71615 -3.26824,-1.78385 -4.6875,-3.20313 -1.41928,-1.41926 -2.48048,-2.97525 -3.18359,-4.66797 -0.70314,-1.70571 -1.0547,-3.54816 -1.05469,-5.52734 -1e-5,-2.00519 0.35155,-3.86066 1.05469,-5.56641 0.70311,-1.7057 1.76431,-3.2682 3.18359,-4.6875 1.41926,-1.41924 2.98176,-2.48695 4.6875,-3.20312 1.71873,-0.71612 3.56769,-1.07419 5.54687,-1.07422 m 0,2.01172 c -1.70574,3e-5 -3.29428,0.30602 -4.76562,0.91797 -1.47137,0.612 -2.81902,1.52997 -4.04297,2.7539 -1.22397,1.22398 -2.14845,2.58466 -2.77344,4.08204 -0.625,1.48439 -0.9375,3.07293 -0.9375,4.76562 0,1.6797 0.3125,3.26173 0.9375,4.74609 0.62499,1.47137 1.54947,2.81902 2.77344,4.04297 1.22395,1.22397 2.5716,2.14844 4.04297,2.77344 1.47134,0.61198 3.05988,0.91797 4.76562,0.91797 1.71873,0 3.31378,-0.30599 4.78516,-0.91797 1.48435,-0.625 2.83851,-1.54947 4.0625,-2.77344 1.21091,-1.21093 2.11586,-2.55207 2.71484,-4.02343 0.61195,-1.47135 0.91794,-3.05989 0.91797,-4.76563 -3e-5,-1.73175 -0.30602,-3.33331 -0.91797,-4.80469 -0.61201,-1.48435 -1.51695,-2.83201 -2.71484,-4.04297 -1.22399,-1.22393 -2.57815,-2.1419 -4.0625,-2.7539 -1.47138,-0.61195 -3.06643,-0.91794 -4.78516,-0.91797 m 5.83985,4.78516 0,2.51953 c -0.8594,-0.42967 -1.71227,-0.74868 -2.5586,-0.95703 -0.84637,-0.20832 -1.69924,-0.31248 -2.55859,-0.3125 -1.94012,2e-5 -3.45705,0.57293 -4.55078,1.71875 -1.08074,1.13283 -1.62111,2.72137 -1.62109,4.76562 -2e-5,2.07033 0.55337,3.67189 1.66015,4.80469 1.11978,1.13282 2.68879,1.69923 4.70703,1.69922 0.83331,10e-6 1.64712,-0.0976 2.44141,-0.29297 0.79425,-0.20833 1.62107,-0.53385 2.48047,-0.97656 l 0,2.48046 c -0.87242,0.37762 -1.75784,0.65756 -2.65625,0.83985 -0.88544,0.1823 -1.78388,0.27344 -2.69531,0.27344 -2.81252,0 -5.03908,-0.79427 -6.67969,-2.38282 -1.62762,-1.58853 -2.44142,-3.73696 -2.44141,-6.44531 -10e-6,-2.72134 0.81379,-4.86977 2.44141,-6.44531 1.64061,-1.5755 3.86717,-2.36326 6.67969,-2.36328 0.9505,2e-5 1.86846,0.0912 2.7539,0.27343 0.88539,0.18232 1.75128,0.44925 2.59766,0.80079"
           inkscape:connector-curvature="0" />
      </g>
    </g>
  </g>
</svg>
