<?xml version="1.0" encoding="UTF-8" standalone="no"?>
<!-- Created with Inkscape (http://www.inkscape.org/) -->

<svg
   xmlns:dc="http://purl.org/dc/elements/1.1/"
   xmlns:cc="http://creativecommons.org/ns#"
   xmlns:rdf="http://www.w3.org/1999/02/22-rdf-syntax-ns#"
   xmlns:svg="http://www.w3.org/2000/svg"
   xmlns="http://www.w3.org/2000/svg"
   xmlns:sodipodi="http://sodipodi.sourceforge.net/DTD/sodipodi-0.dtd"
   xmlns:inkscape="http://www.inkscape.org/namespaces/inkscape"
   width="566.28668"
   height="185.75"
   id="svg1341"
   sodipodi:version="0.32"
   inkscape:version="0.48.3.1 r9886"
   sodipodi:docname="lgpl-agpl-v3-logos.svg"
   inkscape:output_extension="org.inkscape.output.svg.inkscape"
   version="1.0">
  <sodipodi:namedview
     id="base"
     pagecolor="#ffffff"
     bordercolor="#666666"
     borderopacity="1.0"
     inkscape:pageopacity="0.0"
     inkscape:pageshadow="2"
     inkscape:zoom="0.5054504"
     inkscape:cx="-19.152223"
     inkscape:cy="18.413829"
     inkscape:document-units="px"
     inkscape:current-layer="layer1"
     inkscape:window-width="1276"
     inkscape:window-height="748"
     inkscape:window-x="0"
     inkscape:window-y="18"
     showguides="true"
     inkscape:guide-bbox="true"
     width="18in"
     height="12in"
     units="in"
     showborder="true"
     showgrid="false"
     fit-margin-top="0"
     fit-margin-left="0"
     fit-margin-right="0"
     fit-margin-bottom="0"
     inkscape:window-maximized="0">
    <sodipodi:guide
       orientation="horizontal"
       position="-920.66297,1204.6673"
       id="guide2344" />
    <sodipodi:guide
       orientation="horizontal"
       position="-920.66297,1353.1464"
       id="guide2346" />
    <sodipodi:guide
       orientation="vertical"
       position="-1740.786,-680.71875"
       id="guide3321" />
  </sodipodi:namedview>
  <defs
     id="defs1343" />
  <metadata
     id="metadata1346">
    <rdf:RDF>
      <cc:Work
         rdf:about="">
        <dc:format>image/svg+xml</dc:format>
        <dc:type
           rdf:resource="http://purl.org/dc/dcmitype/StillImage" />
        <dc:title></dc:title>
      </cc:Work>
    </rdf:RDF>
  </metadata>
  <g
     inkscape:label="Layer 1"
     id="layer1"
     inkscape:groupmode="layer"
     transform="translate(-920.66297,-213.53125)">
    <path
       inkscape:connector-curvature="0"
       style="fill:#bd0000;fill-opacity:1;fill-rule:evenodd;stroke:none"
       id="path3550"
       d="m 1242.3024,357.96635 c 0,0 -0.012,0 -0.012,0 -1.0699,0 -2.0146,0.35296 -2.9026,1.07016 -0.6602,0.5235 -1.1156,1.22943 -1.4799,2.01489 0,0 0.046,0 0.046,0 0.3642,-0.78546 0.8197,-1.49139 1.4684,-2.01489 0.888,-0.7172 1.8327,-1.05867 2.8801,-1.07016 z" />
    <path
       inkscape:connector-curvature="0"
       style="fill:#bd0000;fill-opacity:1;fill-rule:evenodd;stroke:none"
       id="path3554"
       d="m 1242.3364,357.96635 c -0.012,0 -0.023,0 -0.034,0 1.1042,0.0121 1.8327,0.38719 2.3222,1.1954 0.2162,0.34148 0.33,0.85371 0.33,1.50245 0,0.11404 -0.023,0.26195 -0.034,0.3872 0,0 0.045,0 0.045,0 0,-0.12532 0.023,-0.27323 0.023,-0.3872 0,-0.64874 -0.1024,-1.16097 -0.3187,-1.50245 -0.4895,-0.81968 -1.2294,-1.1954 -2.3336,-1.1954 z" />
    <path
       inkscape:connector-curvature="0"
       style="fill:#ffffff;fill-opacity:0;fill-rule:evenodd;stroke:#663266;stroke-width:5.69160366;stroke-linecap:butt;stroke-linejoin:miter;stroke-miterlimit:4;stroke-opacity:1"
       d="m 1271.3589,375.66224 c 0.4621,1.18788 0.9241,2.37397 1.4055,3.53395 0.7413,1.57605 1.598,3.08465 2.6282,4.49293 5.5644,7.56392 14.8833,11.70546 26.7147,12.73664 0,0 12.727,0 12.727,0 4.024,-0.31399 8.2407,-0.89922 12.6114,-1.75412 7.5378,-1.47397 15.5283,-3.73814 23.8268,-6.76401 6.2864,-2.29208 12.7461,-5.00397 19.302,-8.15588 14.2769,-6.84395 29.0254,-15.67072 43.4948,-26.32303 4.7654,-3.50526 9.338,-7.10194 13.7281,-10.75915 4.024,-3.34818 7.8844,-6.74859 11.5717,-10.18638 10.291,-9.91771 18.0601,-19.99034 22.4596,-28.83471 4.5824,-9.21021 5.497,-17.08494 1.7425,-22.04577 -2.3008,-3.04506 -6.1517,-4.67692 -11.1095,-5.06093 22.3346,-16.75868 35.3502,-37.08793 30.6812,-49.90529 -1.4827,-4.0905 -4.7462,-7.14229 -9.4249,-8.82994 -2.0794,-0.74786 -4.4187,-1.2217 -6.97,-1.43736 0,0 -6.8736,0 -6.8736,0 -9.598,0.69227 -23.5555,4.12908 -35.3967,9.93215"
       sodipodi:nodetypes="cccccssccccscccsccc"
       id="path3618" />
    <path
       inkscape:connector-curvature="0"
       id="path3552"
       style="fill:#663366;fill-opacity:1;fill-rule:evenodd;stroke:none"
       d="m 960.25519,220.82196 c 0,0 -39.59222,172.74015 -39.59222,172.74015 0.0114,0 104.15063,0 104.17333,0 45.7996,0 183.1629,0 183.1629,0 2e-4,0 95.2632,0 95.2632,0 -11.3489,-0.99044 -20.3091,-4.97448 -25.6478,-12.23687 -0.9902,-1.34339 -1.8085,-2.79044 -2.5255,-4.30438 -0.4555,-1.11547 -0.8836,-2.24103 -1.3163,-3.37924 -1.1384,-3.62002 -1.5923,-7.63671 -1.3873,-11.91694 0.5692,-11.92964 6.1669,-26.11985 15.8654,-40.9796 10.3017,-15.7918 25.2323,-32.34332 43.7186,-47.70263 4.1435,-3.43998 8.4279,-6.83702 12.9127,-10.13832 5.5437,-4.07842 11.1301,-7.83475 16.7191,-11.34754 20.5922,-12.96437 41.1333,-22.03588 59.3351,-26.64374 -17.3936,5.67446 -36.9342,15.30785 -56.2401,28.42239 -0.6945,0.4689 -1.3802,0.94928 -2.0634,1.42293 -10.7115,7.42185 -20.4157,15.3041 -28.8848,23.2643 -27.2515,25.62363 -41.6554,52.17498 -35.11,67.73016 0.4667,1.06995 1.0231,2.09164 1.6718,3.05932 7.0349,10.34722 24.4696,12.13577 46.5644,6.5808 1.5027,-0.37552 3.0053,-0.80109 4.5533,-1.24505 7.0576,-2.03745 14.5507,-4.78949 22.2685,-8.1816 1.8555,-0.81968 3.7309,-1.66191 5.6205,-2.56132 0.1935,-0.091 0.3755,-0.18202 0.569,-0.28451 24.3602,-12.10373 43.0813,-26.03081 47.1336,-34.39859 0.888,-1.82019 1.1014,-3.3721 0.498,-4.58888 -2.8913,-5.86242 -23.1234,-1.90189 -47.6316,8.7152 -1.9692,0.8539 -3.9613,1.73236 -5.9762,2.66797 1.6392,-1.52183 3.3454,-3.04962 5.0869,-4.55326 2.7776,-2.39277 5.6533,-4.73252 8.7154,-7.04339 4.7922,-3.62891 9.6371,-6.90961 14.4068,-9.81798 22.3339,-16.84948 33.6246,-32.7881 31.2683,-38.70295 -0.444,-1.11446 -1.3887,-1.88094 -2.8459,-2.34786 -4.6557,-1.48089 -13.1533,0.28669 -23.4778,4.51785 -8.5147,3.49242 -18.2943,8.67187 -28.2091,15.11833 0,0 -1.3517,0.88934 -1.3517,0.88934 0,0 -0.2491,0.14229 -0.2491,0.14229 0,0 -4.7665,3.16596 -4.7665,3.16596 0,0 2.739,-5.01563 2.739,-5.01563 4.0638,-7.43908 10.6832,-15.20064 18.9245,-22.41079 6.0445,-5.27166 12.9499,-10.23862 20.3831,-14.58475 2.8116,-1.64609 5.619,-3.17484 8.4307,-4.55326 2.88,-1.40708 5.7613,-2.65748 8.5729,-3.77077 8.1687,-3.23046 17.1423,-7.31008 23.9425,-7.84387 -0.6193,0 -20.2784,2.11678 -20.2784,2.11678 0,0 -64.3863,0 -64.3863,0 0,0 -283.9042,0 -283.9042,0 0,0 -126.65531,0 -126.65531,0 z m 308.39511,0.24908 c -1.1154,17.02578 2.1857,41.96348 9.6758,69.65087 1.3319,4.92661 2.7817,9.94045 4.3754,15.01168 0.9904,3.13153 2.0121,6.214 3.0593,9.24878 -0.6147,0.90378 -1.2336,1.802 -1.8143,2.70359 -9.3455,14.3222 -14.8081,27.85754 -16.1855,39.6277 -3.95,-13.2273 -6.9237,-27.71549 -8.6085,-43.07835 -0.478,-4.40173 -0.8522,-8.75437 -1.1026,-13.05498 -1.8442,-31.23895 2.2339,-59.55708 10.6004,-80.10929 z m -186.5066,22.1615 c 0.2131,-0.005 0.4232,0 0.6403,0 0,0 42.0824,0 42.0824,0 3.597,0 6.3788,0.67427 8.3594,2.02775 1.9692,1.36139 2.7078,3.12243 2.241,5.26472 0,0 -5.0156,22.65968 -5.0156,22.65968 0,0 -14.8338,0 -14.8338,0 0,0 4.8734,-22.05486 4.8734,-22.05486 0,0 -37.1376,0 -37.1376,0 0,0 -13.4109,60.61537 -13.4109,60.61537 0,0 -4.838,21.94841 -4.838,21.94841 0,0 37.1022,0 37.1022,0 0,0 0.036,-0.1423 0.036,-0.1423 0,0 7.4347,-33.58067 7.4347,-33.58067 0,0 -17.4306,0 -17.4306,0 0,0 1.672,-7.57678 1.672,-7.57678 0,-1.9e-4 32.2642,0 32.2642,0 0,-1.9e-4 -9.2487,41.90433 -9.2487,41.90433 -0.1254,0.59651 -0.3445,1.13684 -0.6405,1.67202 -0.7627,1.38867 -2.093,2.57813 -3.9484,3.55729 -2.5726,1.35446 -5.6517,2.02753 -9.249,2.02753 0,0 -42.0466,0 -42.0466,0 -3.5971,0 -6.3788,-0.67307 -8.3596,-2.02753 -1.9692,-1.35467 -2.7192,-3.08465 -2.2411,-5.22931 0,0 18.5334,-83.77323 18.5334,-83.77323 0.478,-2.14229 1.9692,-3.90333 4.5531,-5.26473 0.091,-0.049 0.1937,-0.0601 0.2847,-0.10659 2.3585,-1.18135 5.1264,-1.84551 8.324,-1.9211 z m 65.9516,0 c -2e-4,0 52.9673,0 52.9673,0 3.5516,0 6.3432,0.67427 8.3241,2.02775 1.9919,1.36139 2.7546,3.12243 2.2766,5.26472 0,0 -9.8892,44.67913 -9.8892,44.67913 -0.4667,2.12865 -1.9935,3.86536 -4.5889,5.22913 -2.5954,1.36831 -5.6503,2.06315 -9.2134,2.06315 0,0 -38.4894,0 -38.4894,0 0,0 -7.4346,33.54486 -7.4346,33.54486 0,0 -1.2094,5.51381 -1.2094,5.51381 0,0 -14.5137,0 -14.5137,0 0,0 1.1028,-4.98022 1.1028,-4.98022 0,0 20.6678,-93.34233 20.6678,-93.34233 z m 73.1725,0 c 0,0 14.5135,0 14.5135,0 0,0 -16.4344,74.23994 -16.4344,74.23994 0,0 -3.5929,16.22113 -3.5929,16.22113 0,0 34.7189,0 34.7189,0 0.3642,2.66244 0.7896,5.2776 1.245,7.86148 0,0 -52.2204,0 -52.2204,0 0,0 4.1263,-18.64001 4.1263,-18.64001 0,0 17.644,-79.68254 17.644,-79.68254 z m -60.4021,7.89729 c 0,0 -9.6403,43.46949 -9.6403,43.46949 0,0 36.1774,0 36.1774,0 0,0 9.6045,-43.46949 9.6045,-43.46949 0,0 -36.1416,0 -36.1416,0 z m -77.1431,102.59567 c 0.1421,-0.005 0.2839,0 0.4269,0 1.6847,0 3.1561,0.29577 4.3398,0.8537 1.2637,0.59196 2.1672,1.4712 2.668,2.63237 0.4895,1.12693 0.6175,2.40602 0.3557,3.80618 0,0 -0.1066,0.5336 -0.1066,0.5336 0,0 -4.1619,0 -4.1619,0 -2e-4,0 0.035,-0.49798 0.035,-0.49798 0.1076,-0.97836 -0.014,-1.74759 -0.3912,-2.27663 -0.049,-0.0662 -0.1206,-0.15391 -0.178,-0.21348 -0.094,-0.096 -0.2349,-0.20537 -0.3556,-0.2845 -0.5824,-0.36701 -1.4933,-0.5692 -2.6679,-0.5692 -1.5597,0 -2.725,0.27164 -3.5217,0.81808 -0.7742,0.53499 -1.2637,1.13269 -1.423,1.84989 -0.1594,0.72846 0.1023,1.11131 0.2845,1.31607 0.01,0.005 0.029,0.0293 0.036,0.0355 0.2307,0.19646 1.0316,0.65746 3.5217,1.24506 2.2538,0.54645 3.7464,1.03731 4.5888,1.45853 1.275,0.64873 2.1657,1.48979 2.6324,2.52552 0.4667,1.02467 0.5692,2.22401 0.2845,3.52169 -0.2845,1.26366 -0.9291,2.42898 -1.8853,3.52169 -0.9447,1.09272 -2.147,1.9579 -3.5929,2.56133 -1.4342,0.59196 -3.0079,0.92475 -4.6243,0.92475 -2.0491,0 -3.694,-0.31003 -4.9802,-0.92475 -1.3432,-0.63745 -2.3123,-1.64351 -2.8813,-2.95267 -0.5464,-1.27473 -0.6631,-2.72199 -0.3559,-4.30418 0,0 0.1068,-0.49798 0.1068,-0.49798 0,0 4.0909,0 4.0909,0 0,0 -0.036,0.49798 -0.036,0.49798 -0.1024,0.94472 0,1.70743 0.2489,2.27663 0.2392,0.54646 0.6945,0.99893 1.4229,1.35169 0.7742,0.37573 1.7417,0.56922 2.8459,0.56922 0.9904,0 1.8954,-0.16639 2.7036,-0.46237 0.7967,-0.28471 1.43,-0.66023 1.8853,-1.13842 0.4439,-0.478 0.7043,-0.98329 0.8181,-1.52956 0.1138,-0.48948 0.087,-0.90357 -0.1066,-1.24505 -0.2163,-0.36423 -0.6446,-0.68732 -1.3163,-0.96035 0,-2.1e-4 -3.4861,-1.03178 -3.4861,-1.03178 -1.9464,-0.48947 -3.2569,-0.9562 -4.0196,-1.42292 -1.036,-0.61452 -1.7829,-1.40294 -2.17,-2.34766 -0.387,-0.93345 -0.4282,-1.968 -0.1777,-3.09492 0.2617,-1.20668 0.8436,-2.35479 1.743,-3.37925 0.9107,-1.03593 2.0859,-1.84849 3.4861,-2.38346 1.2379,-0.46415 2.5406,-0.73641 3.9128,-0.78249 z m 37.3512,0.0711 c 0.2252,-0.0173 0.4369,0 0.6759,0 0,0 2.5611,0.2845 2.5611,0.2845 0,0 0.8537,0.0712 0.8537,0.0712 2e-4,0 -1.2448,3.16595 -1.2448,3.16595 0,0 -0.2491,0.49798 -0.2491,0.49798 0,0 -1.9566,-0.17786 -1.9566,-0.17786 -0.5777,0 -1.002,0.0893 -1.2806,0.28472 -0.018,0.0139 -0.054,0.0562 -0.071,0.0711 -0.037,0.0328 -0.1002,0.0898 -0.1423,0.14247 -0.1714,0.22457 -0.3798,0.62599 -0.5336,1.3517 0,0 -0.074,0.30725 -0.1423,0.56921 0.8992,0 3.0592,0 3.0592,0 0,0 -0.7825,3.52169 -0.7825,3.52169 0,0 -2.2369,0 -2.9881,0 -0.2278,1.02444 -3.0237,13.55295 -3.0237,13.55295 0,0 -4.1266,0 -4.1266,0 0,0 2.6823,-12.03903 3.0238,-13.55295 -0.6945,0 -2.3833,0 -2.3833,0 0,0 0.7825,-3.52169 0.7825,-3.52169 0,0 1.6989,0 2.3478,0 0.1137,-0.48948 0.2845,-1.10281 0.2845,-1.10281 0.2505,-1.13842 0.5123,-1.95651 0.8537,-2.52572 0.467,-0.78546 1.1256,-1.4427 1.9566,-1.92089 0.6845,-0.39769 1.5501,-0.6355 2.5257,-0.71147 z m 9.8536,0.17786 c 0,0 -1.0786,4.85359 -1.3517,6.08302 0.7968,0 2.6678,0 2.6678,0 0,0 -0.7825,3.52169 -0.7825,3.52169 0,0 -1.9622,0 -2.668,0 -0.2162,0.97874 -1.9209,8.57294 -1.9209,8.57294 0,0 -0.1422,0.91206 -0.1422,1.17383 2e-4,0.009 -8e-4,0.0291 0,0.0355 5e-4,0.003 -8e-4,0.0333 0,0.0355 9e-4,0.002 0.034,-10e-4 0.035,0 0,0 0.4269,0.0354 0.4269,0.0354 0,0 1.9566,-0.1423 1.9566,-0.1423 0,0 -0.2135,3.16596 -0.2135,3.16596 0,0 0.036,0.5692 0.036,0.5692 0,0 -2.8102,0.32012 -2.8102,0.32012 -1.1155,0 -1.9338,-0.18202 -2.5257,-0.5692 -0.626,-0.40975 -0.9903,-0.95323 -1.1382,-1.63621 -0.023,-0.12531 -0.071,-0.30746 -0.071,-0.5692 0,-0.51223 0.097,-1.3788 0.427,-2.88145 0,0 1.4953,-6.69893 1.8141,-8.11037 -0.535,0 -1.9564,0 -1.9564,0 0,0 0.7825,-3.52169 0.7825,-3.52169 0,0 1.3873,0 1.9565,0 0.1822,-0.81968 0.8181,-3.62853 0.8181,-3.62853 0,0 3.3084,-1.74303 3.3084,-1.74303 0,0 1.3517,-0.71146 1.3517,-0.71146 z m -131.08474,0.14229 c 0,0 16.00764,0 16.00764,0 0,0 -0.8893,3.98427 -0.8893,3.98427 0,0 -10.6789,0 -11.7034,0 -0.1821,0.80821 -0.912,4.08081 -1.1738,5.26473 1.4798,0 10.1381,0 10.1381,0 0,0 -0.8893,3.98406 -0.8893,3.98406 0,0 -9.1137,0 -10.1382,0 -0.2163,0.99042 -2.1699,9.78236 -2.1699,9.78236 0,0 -4.30429,0 -4.30429,0 0,0 5.12245,-23.01542 5.12245,-23.01542 z m 21.45024,5.62066 c 0.1606,-0.0198 0.3361,0 0.498,0 1.0245,0 1.9707,0.31161 2.8814,0.96037 0,0 0.5692,0.39134 0.5692,0.39134 0,0 -2.2056,3.62832 -2.2056,3.62832 0,0 -0.6047,-0.42696 -0.6047,-0.42696 -0.4439,-0.28451 -0.922,-0.42675 -1.4229,-0.42675 -0.4326,0 -0.8352,0.15373 -1.245,0.42675 -0.4326,0.28471 -0.794,0.6618 -1.0672,1.17404 -0.4781,0.87646 -0.8281,1.85818 -1.0672,2.91685 0,0 -1.9209,8.7508 -1.9209,8.7508 0,0 -4.1264,0 -4.1264,0 0,0 3.8063,-17.07464 3.8063,-17.07464 0,0 3.8418,0 3.8418,0 0,0 -0.1324,0.51778 -0.1779,0.71127 0.1822,-0.13657 0.3742,-0.32428 0.5336,-0.42676 0.5514,-0.32902 1.1338,-0.53439 1.7075,-0.60463 z m 12.2369,0 c 0.2485,-0.0189 0.4931,0 0.7471,0 2.3221,0 4.0794,0.81375 5.2291,2.41889 0.7172,1.03573 1.1028,2.31641 1.1028,3.8418 0,0.84225 -0.1038,1.74878 -0.3201,2.73901 0,0 -0.3202,1.24505 -0.3202,1.24505 0,0 -10.4356,0 -11.5967,0 -0.023,0.23901 -0.035,0.49521 -0.035,0.71146 0,0.88794 0.1822,1.58654 0.5691,2.09877 0.184,0.25047 0.3972,0.47603 0.6403,0.64023 0.4585,0.29915 1.0504,0.46257 1.7432,0.46257 0.8423,0 1.5822,-0.23207 2.2766,-0.67584 0.6602,-0.42122 1.292,-1.09429 1.8497,-2.02774 0,0 4.411,0 4.411,0 0,0 -0.3912,0.8537 -0.3912,0.8537 -0.8424,1.70762 -2.0178,3.03935 -3.4862,3.98427 -1.4684,0.94472 -3.2228,1.45833 -5.158,1.45833 -2.5157,0 -4.3882,-0.81375 -5.5493,-2.41889 -1.1497,-1.5709 -1.3973,-3.74228 -0.7826,-6.47417 0.6147,-2.77758 1.8412,-4.99724 3.6284,-6.54538 1.6018,-1.38891 3.4195,-2.15931 5.4426,-2.31206 z m 18.5334,0 c 0.2483,-0.0189 0.493,0 0.7469,0 2.3223,0 4.0796,0.81375 5.2293,2.41889 0.7172,1.03573 1.1026,2.31641 1.1026,3.8418 0,0.83097 -0.1038,1.72445 -0.3201,2.7034 0,0 -0.3202,1.28066 -0.3202,1.28066 0,0 -10.4355,0 -11.5966,0 -0.012,0.15945 -0.024,0.3031 -0.035,0.46237 -0.01,0.0598 0,0.15061 0,0.21347 -3e-4,0.0104 0,0.0257 0,0.0355 0,0.17073 0.024,0.33872 0.035,0.49799 0.057,0.64894 0.2263,1.19104 0.5336,1.60078 0.059,0.0797 0.1135,0.17807 0.1778,0.2491 0.5214,0.55773 1.2593,0.85371 2.2055,0.85371 0.8424,0 1.5936,-0.23208 2.2766,-0.67585 0.6604,-0.42122 1.2921,-1.09429 1.8499,-2.02774 0,0 4.4464,0 4.4464,0 0,0 -0.4268,0.8537 -0.4268,0.8537 -0.8424,1.70763 -2.0176,3.03935 -3.486,3.98427 -1.4685,0.94472 -3.223,1.45834 -5.158,1.45834 -2.5158,0 -4.3883,-0.81376 -5.5494,-2.41889 -0.7512,-1.02447 -1.1027,-2.32927 -1.1027,-3.87742 0,-0.23901 0.012,-0.4966 0.035,-0.74708 0.046,-0.59175 0.1366,-1.18946 0.2846,-1.84967 0.6147,-2.76611 1.8057,-4.99724 3.5928,-6.54539 1.6018,-1.3889 3.455,-2.15931 5.4782,-2.31206 z m 50.4772,0 c 0.2543,-0.0196 0.4881,0 0.7471,0 2.3679,0 4.1877,0.80089 5.3714,2.38327 1.1726,1.58219 1.4571,3.71658 0.8539,6.40295 -0.4667,2.09461 -1.1412,3.78641 -2.0634,5.01584 -0.9219,1.22941 -2.0971,2.23389 -3.486,2.91686 -1.3772,0.68297 -2.8358,1.03158 -4.3042,1.03158 -2.4134,0 -4.2104,-0.82523 -5.3716,-2.41889 -0.7512,-1.01318 -1.1382,-2.31778 -1.1382,-3.87741 0,-0.84224 0.092,-1.7373 0.3201,-2.739 0.683,-3.05082 2.0774,-5.37433 4.1263,-6.86551 1.5041,-1.0858 3.1652,-1.71298 4.9446,-1.84969 z m 62.5011,0 c 0.3001,-0.0186 0.5779,0 0.8893,0 1.4342,0 2.5612,0.14507 3.4149,0.49798 0.9107,0.36425 1.5566,0.87924 1.9209,1.49395 0.3529,0.58049 0.5336,1.29353 0.5336,2.16999 0,0 -0.4268,2.59675 -0.4268,2.59675 0,0 -0.7827,3.5217 -0.7827,3.5217 -0.6717,3.00511 -0.8195,4.13204 -0.8537,4.55326 -0.034,0.5692 0.018,1.12398 0.1779,1.6364 0,0 0.2845,0.92473 0.2845,0.92473 0,0 -4.1976,0 -4.1976,0 0,0 -0.1778,-0.53358 -0.1778,-0.53358 -0.068,-0.25029 -0.048,-0.56901 -0.071,-0.85372 -0.7969,0.48947 -1.595,0.92355 -2.3122,1.17383 -1.0587,0.36444 -2.1572,0.56921 -3.2728,0.56921 -1.935,0 -3.368,-0.50372 -4.2332,-1.49395 -0.66,-0.72848 -0.9603,-1.61919 -0.9603,-2.63237 0,-0.38699 0.051,-0.78822 0.1423,-1.20943 0.1935,-0.86519 0.545,-1.66628 1.1028,-2.38348 0.5464,-0.70572 1.1924,-1.28621 1.9209,-1.70743 0.7057,-0.4212 1.4925,-0.71995 2.3122,-0.92492 0,0 2.5257,-0.42677 2.5257,-0.42677 1.9465,-0.22772 3.3993,-0.51084 4.4465,-0.8183 0.023,-0.11369 0.071,-0.24888 0.071,-0.24888 0.165,-0.73244 0.1444,-1.28304 -0.036,-1.56517 -0.014,-0.0182 -0.056,-0.0556 -0.071,-0.0712 -0.038,-0.0409 -0.097,-0.1052 -0.1423,-0.14229 -0.4281,-0.33872 -1.1582,-0.49799 -2.1343,-0.49799 -1.1042,0 -1.9209,0.18064 -2.4899,0.53359 -0.558,0.35277 -1.0744,0.99874 -1.5298,1.92091 0,0 -4.3042,0 -4.3042,0 0,0 0.3912,-0.85371 0.3912,-0.85371 0.5122,-1.18392 1.1227,-2.16584 1.8854,-2.91707 0.7628,-0.75122 1.7929,-1.3333 2.9881,-1.74304 0.9159,-0.30231 1.9162,-0.50293 2.9881,-0.56901 z m 18.0352,0 c 0.1607,-0.0198 0.3361,0 0.498,0 1.0359,0 2.0063,0.31161 2.917,0.96037 0,0 0.5336,0.39134 0.5336,0.39134 0,0 -2.2056,3.62832 -2.2056,3.62832 0,0 -0.6046,-0.42696 -0.6046,-0.42696 -0.444,-0.28451 -0.898,-0.42675 -1.3873,-0.42675 -0.4327,0 -0.8596,0.15373 -1.2807,0.42675 -0.4327,0.28471 -0.747,0.6618 -1.0315,1.17404 -0.4668,0.87646 -0.8282,1.85818 -1.0672,2.91685 0,0 -1.9566,8.7508 -1.9566,8.7508 0,0 -4.1265,0 -4.1265,0 0,0 3.8064,-17.07464 3.8064,-17.07464 0,0 3.8418,0 3.8418,0 0,0 -0.097,0.51778 -0.1423,0.71127 0.1821,-0.13657 0.3629,-0.32428 0.5336,-0.42676 0.5425,-0.32902 1.0985,-0.53439 1.6719,-0.60463 z m 12.2014,0 c 0.2482,-0.0189 0.4931,0 0.7469,0 2.3224,0 4.0909,0.81375 5.2293,2.41889 0.7285,1.03573 1.1026,2.31641 1.1026,3.8418 0,0.84225 -0.1393,1.74878 -0.3557,2.73901 0,0 -0.2845,1.24505 -0.2845,1.24505 0,0 -10.4469,0 -11.5966,0 -0.023,0.23901 -0.071,0.49521 -0.071,0.71146 0,0.88794 0.1937,1.58654 0.5692,2.09877 0.059,0.0797 0.1491,0.17807 0.2135,0.2491 0.037,0.0397 0.103,0.1052 0.1423,0.14229 0.5089,0.46258 1.2015,0.71147 2.0632,0.71147 0.8424,0 1.5824,-0.23208 2.2766,-0.67585 0.6604,-0.42122 1.2807,-1.09429 1.8499,-2.02774 0,0 4.4466,0 4.4466,0 0,0 -0.427,0.8537 -0.427,0.8537 -0.8424,1.70762 -2.0291,3.03935 -3.486,3.98427 -1.4799,0.94472 -3.2115,1.45834 -5.1581,1.45834 -2.5156,0 -4.3527,-0.81376 -5.5136,-2.4189 -1.1497,-1.5709 -1.4216,-3.74227 -0.8183,-6.47417 0.6147,-2.77757 1.8057,-4.99723 3.5929,-6.54538 1.6119,-1.3889 3.457,-2.15931 5.4782,-2.31206 z m -62.2875,0.32012 c 0,0 4.2331,0 4.2331,0 0,0 0.5221,10.13237 0.5336,10.28037 0.1707,-0.36286 0.3033,-0.66813 0.3201,-0.71146 0,0 4.6601,-9.56891 4.6601,-9.56891 0,0 3.8775,0 3.8775,0 0,0 0.3557,10.0099 0.3557,10.06689 0.1137,-0.20478 5.3001,-10.06689 5.3001,-10.06689 0,0 4.1976,0 4.1976,0 0,0 -9.2488,17.07464 -9.2488,17.07464 0,0 -3.8062,0 -3.8062,0 0,0 -0.3686,-9.25866 -0.3914,-9.78236 -1.5709,3.22153 -4.7667,9.78236 -4.7667,9.78236 0,0 -3.913,0 -3.913,0 0,0 -1.3517,-17.07464 -1.3517,-17.07464 z m -99.3896,3.23698 c -0.9806,0.0414 -1.8712,0.39491 -2.7035,1.0672 -0.6602,0.52371 -1.1056,1.24228 -1.4585,2.02754 0,2.1e-4 7.0078,0 7.0078,0 0.012,-0.12497 0.035,-0.27738 0.035,-0.39115 0,-0.64893 -0.1153,-1.15265 -0.3202,-1.49414 -0.5008,-0.81948 -1.2435,-1.20945 -2.3477,-1.20945 -0.066,0 -0.1481,-0.003 -0.2134,0 z m 18.5332,0 c -0.9805,0.0414 -1.871,0.39491 -2.7035,1.0672 -0.6602,0.52371 -1.0941,1.24228 -1.4584,2.02754 0,2.1e-4 7.0078,0 7.0078,0 0.012,-0.12497 0.036,-0.27738 0.036,-0.39115 0,-0.64893 -0.1039,-1.15265 -0.3202,-1.49414 -0.099,-0.16639 -0.234,-0.33198 -0.3557,-0.46237 -0.4754,-0.49105 -1.1295,-0.74708 -1.9921,-0.74708 -0.066,0 -0.148,-0.003 -0.2135,0 z m 143.3574,0 c -1.0084,0.031 -1.9502,0.37255 -2.8104,1.0672 -0.6487,0.52371 -1.0941,1.24228 -1.4583,2.02754 0,2.1e-4 6.9721,0 6.9721,0 0.012,-0.12497 0.036,-0.27738 0.036,-0.39115 0,-0.64893 -0.1038,-1.15265 -0.3201,-1.49414 -0.4895,-0.80821 -1.2437,-1.19797 -2.3479,-1.20945 -0.033,4e-4 -0.039,-9.9e-4 -0.071,0 z m -93.2,0.0712 c -0.941,0.11161 -1.8161,0.5411 -2.6324,1.28047 -0.979,0.88794 -1.689,2.28237 -2.0988,4.12649 -0.1707,0.77398 -0.2491,1.43579 -0.2491,2.02756 0,0.80821 0.1552,1.44289 0.4626,1.92089 0.082,0.12288 0.1903,0.25245 0.2845,0.35574 0.5061,0.53734 1.2126,0.81829 2.0988,0.81829 1.1497,0 2.1629,-0.42834 3.1303,-1.31628 0.979,-0.89922 1.6776,-2.3079 2.0988,-4.19754 0.387,-1.73017 0.333,-3.02211 -0.2135,-3.8418 -0.5235,-0.79673 -1.2892,-1.17382 -2.3477,-1.17382 -0.1796,0 -0.3592,-0.0208 -0.5335,0 z m 64.2795,6.22507 c -0.9675,0.26196 -2.0519,0.48235 -3.4861,0.67605 -1.07,0.15928 -1.8327,0.32723 -2.2766,0.49797 -0.387,0.15928 -0.6986,0.37988 -0.9606,0.67586 -0.2503,0.28451 -0.4182,0.58324 -0.498,0.92492 -0.023,0.13658 -0.035,0.27739 -0.035,0.39115 0,0.009 -2e-4,0.0265 0,0.0355 0,0.027 0,0.0806 0,0.10677 0.01,0.0515 0.022,0.12964 0.035,0.17767 0.01,0.0156 0.03,0.0558 0.035,0.0712 0.012,0.0307 0.02,0.0777 0.036,0.10677 0.016,0.0288 0.052,0.0789 0.071,0.10659 0.03,0.0409 0.07,0.10382 0.1068,0.1423 0.2845,0.31873 0.8523,0.46236 1.6718,0.46236 0.8994,0 1.7644,-0.17072 2.5613,-0.56901 0.7855,-0.38718 1.4186,-0.9649 1.8853,-1.6364 0.3415,-0.478 0.6147,-1.2138 0.8537,-2.16999 z m -217.28237,-28.52179 95.46927,-98.57067 15.5905,0 -23.0513,98.57067 -12.8233,0 6.5452,-28.37436 -40.02229,0 -27.19747,28.37436 -14.51061,0 m 51.43397,-38.52728 32.7332,0 6.0393,-24.74351 c 2.4374,-9.81665 4.7836,-17.99725 7.0386,-24.5418 -4.5064,5.64804 -10.4685,12.34941 -17.8863,20.10409 l -27.9248,29.18113" />
  </g>
</svg>
